<svg xmlns="http://www.w3.org/2000/svg" width="150" height="127">
    <g fill="none" fill-rule="evenodd">
        <path fill="#FFF"
            d="M17.794 121.808c1.479 0 2.519-.37 3.122-1.108.604-.74.905-1.91.905-3.51 0-1.724-.313-2.96-.942-3.712-.628-.752-1.693-1.128-3.195-1.128h-1.626v9.458h1.736zm-.183-13.558c1.477 0 2.486-.332 3.028-.998.542-.664.813-1.723.813-3.177 0-1.329-.345-2.284-1.035-2.863-.69-.578-1.76-.868-3.213-.868h-1.146v7.906h1.553zM10 96.17h7.61c2.905 0 5.16.56 6.76 1.68 1.6 1.122 2.402 3.147 2.402 6.077 0 1.774-.376 3.173-1.127 4.193-.751 1.023-1.828 1.657-3.232 1.903 1.748.246 3.06.986 3.934 2.217.874 1.23 1.311 2.92 1.311 5.061 0 5.862-2.905 8.793-8.718 8.793H10V96.169zm31.716 24.918c.356-.702.535-1.669.535-2.9v-14.15c0-1.23-.179-2.185-.535-2.863-.358-.676-1.053-1.015-2.088-1.015-1.034 0-1.73.339-2.087 1.015-.357.678-.536 1.632-.536 2.864v14.148c0 1.257.173 2.23.518 2.92.344.689 1.046 1.034 2.105 1.034 1.035 0 1.73-.352 2.088-1.053zm-8.885 2.918c-1.355-1.663-2.032-4.106-2.032-7.333v-11.157c0-3.226.677-5.652 2.032-7.278 1.354-1.625 3.62-2.438 6.797-2.438 3.152 0 5.413.819 6.78 2.457s2.05 4.058 2.05 7.26v11.193c0 3.202-.683 5.633-2.05 7.296-1.367 1.662-3.628 2.494-6.78 2.494-3.177 0-5.443-.832-6.797-2.494zm23.2-13.946L50.34 96.17h5.763l3.547 8.646 2.955-8.646h5.172l-5.43 15.332 5.947 14.592h-5.69l-3.915-9.458-3.435 9.458h-5.136l5.911-16.033zm15.145-13.89h2.845v13.263h9.42V96.17h2.807v29.924h-2.807v-14.555h-9.42v14.555h-2.845V96.17zm20.282 0h10.824v2.18h-7.98v11.231h6.502v2.07h-6.501v12.338h8.053v2.105H91.46V96.17zm21.353 13.152c1.797 0 3.053-.443 3.768-1.33.714-.887 1.071-2.29 1.071-4.21 0-1.947-.339-3.35-1.015-4.213-.678-.861-1.928-1.293-3.75-1.293h-3.88v11.046h3.806zm-6.613-13.152h6.76c2.684 0 4.594.647 5.726 1.94 1.134 1.292 1.7 3.184 1.7 5.671 0 1.897-.308 3.46-.924 4.691-.615 1.233-1.687 2.009-3.214 2.328l4.582 15.295h-2.734l-4.396-14.704h-4.693v14.704H106.2V96.169zm29.775 26.433c.69-1.072 1.035-2.642 1.035-4.71v-13.558c0-2.07-.34-3.621-1.016-4.655-.678-1.035-1.94-1.552-3.787-1.552-1.872 0-3.153.512-3.842 1.534-.69 1.021-1.034 2.58-1.034 4.673v13.558c0 2.094.344 3.67 1.034 4.728.689 1.06 1.97 1.59 3.842 1.59 1.823 0 3.078-.536 3.768-1.608zm-9.734 1.46c-1.17-1.601-1.755-3.867-1.755-6.798V104.85c0-2.906.591-5.129 1.773-6.668 1.182-1.539 3.165-2.31 5.948-2.31 2.734 0 4.692.777 5.873 2.33 1.183 1.55 1.774 3.767 1.774 6.648v12.45c0 2.931-.579 5.19-1.736 6.78-1.159 1.587-3.128 2.382-5.91 2.382-2.808 0-4.797-.8-5.967-2.401zM73.504.381L45.899 16.32a2.845 2.845 0 00-1.422 2.465v31.874c0 1.017.542 1.956 1.422 2.465L73.504 69.06c.88.508 1.966.508 2.846 0l4.123-2.38 4.177-17.96-9.722 5.613 6.392-22.979 12.462-7.194-4.099 14.73 9.292-5.364-17.148 32.373 22.128-12.776a2.846 2.846 0 001.423-2.465V18.784a2.844 2.844 0 00-1.423-2.465L76.35.38a2.853 2.853 0 00-2.846.001" />
        <path d="M0 0h150v127H0z" />
    </g>
</svg>